<svg width="150" height="150" viewBox="0 0 150 150" fill="none" xmlns="http://www.w3.org/2000/svg">
<rect x="0.5" y="0.5" width="149" height="149" rx="74.5" fill="#FDE9EF"/>
<rect x="0.5" y="0.5" width="149" height="149" rx="74.5" stroke="#EB235C"/>
<path d="M72.6961 99.7889C72.9934 99.9546 73.328 100.042 73.6684 100.042C74.0087 100.042 74.3434 99.9546 74.6406 99.7889L94.6495 88.2372C94.9451 88.0666 95.1906 87.8211 95.3612 87.5255C95.5319 87.2299 95.6218 86.8946 95.6218 86.5533V63.4475C95.6164 63.1072 95.5243 62.774 95.3542 62.4793C95.1841 62.1846 94.9415 61.9383 94.6495 61.7635L74.6406 50.2119C74.3449 50.0415 74.0097 49.9518 73.6684 49.9518C73.3271 49.9518 72.9918 50.0415 72.6961 50.2119L52.6859 61.7635C52.394 61.9383 52.1515 62.1847 51.9814 62.4794C51.8113 62.7741 51.7191 63.1073 51.7137 63.4475V86.5533C51.7137 86.8946 51.8035 87.2299 51.9742 87.5255C52.1449 87.8211 52.3903 88.0666 52.6859 88.2372L72.6961 99.7889ZM91.7328 85.4307L75.6129 94.737V76.1217L85.1967 70.589L85.207 70.5825L91.7328 66.8153V85.4307ZM73.6684 54.1411L89.7883 63.4488L84.2426 66.6507L68.1227 57.343L73.6684 54.1411ZM64.235 59.587L80.3549 68.8947L73.6684 72.7551L57.5472 63.4475L64.235 59.587ZM55.6014 66.8153L71.7239 76.123V94.737L55.6027 85.4294L55.6014 66.8153ZM66.0537 75.4956L61.6177 72.934C61.3964 72.8043 61.1517 72.7197 60.8977 72.6849C60.6436 72.6502 60.3852 72.6661 60.1372 72.7316C59.8893 72.7972 59.6568 72.9111 59.4531 73.0669C59.2494 73.2226 59.0785 73.4172 58.9503 73.6392C58.822 73.8613 58.739 74.1066 58.706 74.3609C58.6729 74.6152 58.6905 74.8735 58.7577 75.121C58.8249 75.3685 58.9403 75.6002 59.0975 75.8029C59.2546 76.0056 59.4502 76.1752 59.6732 76.3019L64.1092 78.8635C64.3304 78.9931 64.5751 79.0778 64.8292 79.1125C65.0833 79.1473 65.3417 79.1314 65.5897 79.0659C65.8376 79.0003 66.0701 78.8864 66.2738 78.7306C66.4775 78.5748 66.6484 78.3803 66.7766 78.1582C66.9048 77.9362 66.9879 77.6909 67.0209 77.4366C67.054 77.1823 67.0364 76.924 66.9692 76.6765C66.902 76.429 66.7865 76.1973 66.6294 75.9946C66.4723 75.7919 66.2766 75.6223 66.0537 75.4956ZM103.838 93.8465C103.747 93.3995 103.507 92.9964 103.158 92.7025C102.809 92.4086 102.371 92.2412 101.915 92.2273L94.5134 92.2507C94.258 92.2511 94.0053 92.3018 93.7695 92.3999C93.5338 92.4981 93.3197 92.6416 93.1394 92.8225C92.9591 93.0034 92.8163 93.218 92.7189 93.454C92.6216 93.6901 92.5717 93.9431 92.5722 94.1984C92.5726 94.4538 92.6233 94.7065 92.7214 94.9423C92.8195 95.1781 92.9631 95.3922 93.144 95.5724C93.3248 95.7527 93.5394 95.8956 93.7755 95.9929C94.0116 96.0902 94.2645 96.1401 94.5199 96.1397H94.5251L97.8281 96.1293C92.5681 101.806 85.381 105.319 77.6701 105.982C69.9592 106.644 62.2781 104.409 56.1267 99.7127C49.9753 95.0162 45.7951 88.1956 44.4024 80.5827C43.0097 72.9697 44.5044 65.1109 48.5947 58.5408C48.73 58.3243 48.8214 58.0832 48.8636 57.8314C48.9057 57.5795 48.8979 57.3218 48.8405 57.073C48.7831 56.8242 48.6772 56.5891 48.5289 56.3812C48.3807 56.1733 48.1929 55.9967 47.9764 55.8613C47.7598 55.726 47.5187 55.6346 47.2669 55.5925C47.015 55.5503 46.7573 55.5581 46.5085 55.6155C46.2597 55.673 46.0246 55.7788 45.8167 55.9271C45.6088 56.0754 45.4322 56.2631 45.2968 56.4797C40.687 63.8748 39.0017 72.7237 40.5705 81.2956C42.1394 89.8675 46.8495 97.5458 53.7798 102.829C60.71 108.112 69.3619 110.62 78.0431 109.862C86.7244 109.103 94.8106 105.134 100.72 98.7298L101.257 101.901C101.334 102.353 101.568 102.764 101.918 103.06C102.269 103.356 102.713 103.519 103.172 103.52C103.282 103.52 103.391 103.511 103.5 103.492C103.751 103.45 103.992 103.358 104.209 103.222C104.425 103.086 104.612 102.909 104.76 102.701C104.908 102.493 105.013 102.257 105.07 102.008C105.127 101.759 105.134 101.502 105.091 101.25L103.838 93.8465ZM75.001 39.9994C67.1943 39.9784 59.6084 42.5898 53.4689 47.4118L53.478 44.3227C53.4787 44.0672 53.429 43.8141 53.3318 43.5778C53.2347 43.3416 53.0919 43.1268 52.9117 42.9457C52.7315 42.7647 52.5173 42.6209 52.2815 42.5226C52.0457 42.4243 51.7928 42.3735 51.5374 42.373H51.5322C51.0174 42.373 50.5236 42.5771 50.1591 42.9407C49.7945 43.3042 49.5891 43.7975 49.5877 44.3123L49.567 51.7156C49.5753 52.1821 49.747 52.6308 50.0521 52.9837C50.3571 53.3367 50.7763 53.5714 51.2366 53.6472L58.6387 54.705C58.7307 54.7172 58.8233 54.7233 58.9161 54.7231C59.4078 54.7226 59.8811 54.5358 60.2406 54.2003C60.6002 53.8649 60.8192 53.4056 60.8537 52.9151C60.8883 52.4246 60.7356 51.9392 60.4266 51.5567C60.1176 51.1742 59.6752 50.923 59.1883 50.8536L55.9669 50.3934C61.4276 46.1752 68.1354 43.8914 75.0355 43.9012C81.9357 43.9111 88.6369 46.2139 94.0855 50.4477C99.5341 54.6815 103.421 60.606 105.135 67.2899C106.85 73.9737 106.294 81.0378 103.555 87.3713C103.448 87.6064 103.389 87.8606 103.381 88.1189C103.373 88.3773 103.417 88.6346 103.509 88.8759C103.602 89.1171 103.742 89.3375 103.921 89.5241C104.1 89.7107 104.314 89.8597 104.551 89.9625C104.788 90.0653 105.043 90.1198 105.302 90.1228C105.56 90.1258 105.817 90.0772 106.056 89.98C106.296 89.8827 106.513 89.7387 106.696 89.5563C106.88 89.3739 107.025 89.1569 107.123 88.9178C109.426 83.5916 110.37 77.7763 109.869 71.9949C109.368 66.2135 107.439 60.6472 104.254 55.7965C101.068 50.9457 96.7275 46.9626 91.6214 44.2052C86.5154 41.4478 80.8041 40.0025 75.001 39.9994Z" fill="#EB235C"/>
</svg>
