<svg width="150" height="150" viewBox="0 0 150 150" fill="none" xmlns="http://www.w3.org/2000/svg">
<rect x="0.6" y="0.6" width="148.8" height="148.8" rx="74.4" fill="#FDE9EF"/>
<rect x="0.6" y="0.6" width="148.8" height="148.8" rx="74.4" stroke="#EB235C" stroke-width="1.2"/>
<path d="M46.6765 69.0397C47.6255 70.8905 48.1019 71.8193 48.2381 72.5916C48.3743 73.3637 48.2443 74.3994 47.9858 76.4631C47.9207 76.9824 47.8481 77.5606 47.7704 78.2104C47.3432 81.7841 49.2792 85.1373 52.5878 86.5546C53.1894 86.8123 53.7263 87.0385 54.2084 87.2418L54.4635 87.3495L46.8391 103.726C46.6808 104.065 46.6188 104.442 46.6596 104.815C46.7005 105.188 46.8427 105.542 47.0707 105.839C47.2988 106.137 47.604 106.366 47.9533 106.502C48.3025 106.639 48.6824 106.677 49.0517 106.612L57.4324 105.148L61.7067 112.504C61.895 112.828 62.1686 113.094 62.4977 113.274C62.8268 113.453 63.1989 113.539 63.5734 113.522C63.9479 113.505 64.3106 113.386 64.6221 113.177C64.9336 112.969 65.182 112.679 65.3402 112.339L72.909 96.0819L72.7595 96.0125C74.0554 95.6204 74.8201 95.4232 75.447 95.4232C76.2312 95.4232 77.2287 95.7309 79.2159 96.3443L79.8744 96.5471L85.3367 109.229C85.485 109.573 85.7248 109.87 86.0301 110.088C86.3354 110.306 86.6945 110.435 87.0684 110.463C87.4423 110.491 87.8167 110.416 88.1509 110.246C88.485 110.076 88.7662 109.817 88.9638 109.499L93.4497 102.27L101.784 103.977C102.151 104.052 102.532 104.026 102.885 103.9C103.238 103.774 103.55 103.553 103.787 103.262C104.023 102.972 104.176 102.621 104.227 102.25C104.279 101.879 104.228 101.5 104.08 101.156L97.8712 86.741C98.0164 86.6793 98.1615 86.6173 98.3066 86.5551C101.615 85.1381 103.551 81.7846 103.124 78.2109C103.046 77.5611 102.974 76.9829 102.909 76.4639C102.65 74.4002 102.52 73.3645 102.656 72.5921C102.792 71.8201 103.269 70.891 104.218 69.0404C104.456 68.5748 104.722 68.0563 105.018 67.4724C106.642 64.2602 105.969 60.447 103.345 57.984C102.917 57.5827 102.487 57.1827 102.057 56.784C100.532 55.3693 99.7669 54.6595 99.3748 53.9803C98.9827 53.3013 98.7504 52.2835 98.2881 50.256C98.1717 49.7457 98.0422 49.1775 97.8927 48.5403C97.0719 45.0358 94.1056 42.5469 90.5118 42.3472C89.8585 42.3108 89.2767 42.282 88.7541 42.2559C86.6768 42.1525 85.6342 42.1005 84.8972 41.8323C84.1603 41.5641 83.3282 40.9338 81.6707 39.6778C81.2535 39.3619 80.7891 39.0101 80.2652 38.6178C77.3838 36.4607 73.5118 36.4607 70.6304 38.6178C70.1065 39.0101 69.6422 39.3619 69.225 39.6778C67.5672 40.9338 66.7354 41.5641 65.9984 41.8323C65.2615 42.1005 64.2191 42.1525 62.1416 42.2559C61.619 42.282 61.0369 42.3108 60.3838 42.3472C56.79 42.5472 53.8237 45.036 53.0029 48.5403C52.8537 49.1775 52.7242 49.7455 52.6075 50.2557C52.145 52.2835 51.9129 53.301 51.5206 53.9803C51.1285 54.6593 50.3631 55.3693 48.8386 56.7837C48.4082 57.1825 47.9788 57.5825 47.5506 57.9838C44.9262 60.447 44.2538 64.26 45.8775 67.4722C46.142 67.9956 46.4083 68.5181 46.6765 69.0397ZM63.2796 107.044L60.2615 101.85C60.0507 101.488 59.7338 101.198 59.3536 101.021C58.9733 100.844 58.5479 100.788 58.1347 100.86L52.2173 101.894L58.0665 89.3306C58.5506 89.8699 59.0909 90.7058 59.9825 92.0866C60.2663 92.5264 60.5825 93.0159 60.9407 93.5639C62.4626 95.8909 64.9799 97.2105 67.6351 97.2105C67.7103 97.2105 67.7862 97.2043 67.8616 97.2023L63.2796 107.044ZM92.8719 97.9636C92.461 97.8794 92.0342 97.9233 91.649 98.0892C91.2638 98.2552 90.9387 98.5352 90.7175 98.8916L87.5502 103.996L84.5782 97.0956C86.7294 96.7345 88.6866 95.5006 89.9531 93.5639C90.274 93.0726 90.5933 92.5804 90.9111 92.0872C92.0393 90.3399 92.6055 89.4629 93.2063 88.9588C93.4407 88.7621 93.7315 88.5801 94.1115 88.3836L98.7566 99.1688L92.8719 97.9636ZM50.3574 60.9749C50.8282 60.5331 51.2495 60.1421 51.6283 59.791C55.2695 56.4132 55.502 56.0101 56.6069 51.1678C56.7218 50.6645 56.8495 50.1042 56.997 49.4754C57.4052 47.7328 58.824 46.5425 60.611 46.443C61.2556 46.4071 61.8295 46.3786 62.3452 46.3527C67.3059 46.1058 67.7431 45.9466 71.702 42.9472C72.1133 42.6354 72.5718 42.2882 73.0887 41.9013C73.8052 41.3648 74.6262 41.0969 75.4476 41.0969C76.2686 41.0969 77.0897 41.3648 77.8064 41.9013C78.2697 42.2483 78.7319 42.5968 79.1929 42.9469C83.1518 45.9463 83.589 46.1053 88.5497 46.3525C89.0654 46.3781 89.6392 46.4066 90.2839 46.4427C92.0711 46.5422 93.4897 47.7325 93.8979 49.4752C94.0451 50.1039 94.173 50.6645 94.2879 51.1678C95.3926 56.0098 95.6251 56.4129 99.2666 59.7908C99.6913 60.1841 100.115 60.5788 100.537 60.9747C101.842 62.1996 102.164 64.0233 101.356 65.6208C101.065 66.197 100.803 66.7085 100.567 67.1678C98.3009 71.5875 98.2201 72.0457 98.8381 76.9739C98.9022 77.486 98.9738 78.0562 99.0504 78.6973C99.263 80.4746 98.3371 82.0782 96.6916 82.7829C96.0983 83.037 95.5685 83.2603 95.0926 83.4609C90.5157 85.3897 90.1593 85.6886 87.4648 89.8611C87.1512 90.3477 86.8361 90.8333 86.5196 91.3179C85.5401 92.8156 83.8002 93.449 82.0863 92.9315C81.4683 92.7446 80.9191 92.5754 80.426 92.4231C75.6804 90.9589 75.215 90.9586 70.4684 92.4231C69.9753 92.5754 69.426 92.7446 68.808 92.9315C67.0951 93.4493 65.3543 92.8159 64.3747 91.3179C64.0581 90.8332 63.743 90.3475 63.4293 89.8609C60.7351 85.6886 60.3787 85.3894 55.8015 83.4609C55.3259 83.2603 54.7964 83.0372 54.2027 82.7829C52.5573 82.0782 51.6313 80.4746 51.8439 78.697C51.9206 78.056 51.9921 77.4855 52.0565 76.9734C52.6745 72.0452 52.5937 71.5872 50.3272 67.1673C50.0918 66.708 49.8295 66.1967 49.5382 65.6205C48.7307 64.0236 49.0522 62.1999 50.3574 60.9749ZM75.4468 85.9135C85.8186 85.9135 94.2566 77.4755 94.2566 67.1037C94.2566 56.7319 85.8186 48.2941 75.4468 48.2941C65.075 48.2941 56.6372 56.7322 56.6372 67.1037C56.6372 77.4755 65.0753 85.9135 75.4468 85.9135ZM75.4468 52.3966C83.5561 52.3966 90.1539 58.9941 90.1539 67.1034C90.1539 75.2128 83.5564 81.8105 75.4468 81.8105C67.3372 81.8105 60.74 75.213 60.74 67.1034C60.74 58.9938 67.3374 52.3966 75.4468 52.3966ZM70.2247 74.3727L64.9455 69.0933C64.755 68.9028 64.6039 68.6767 64.5009 68.4278C64.3978 68.1789 64.3447 67.9122 64.3447 67.6428C64.3447 67.3734 64.3978 67.1067 64.5009 66.8578C64.6039 66.609 64.755 66.3828 64.9455 66.1924C65.136 66.0019 65.3621 65.8508 65.611 65.7477C65.8599 65.6446 66.1266 65.5915 66.396 65.5915C66.6654 65.5915 66.9321 65.6446 67.181 65.7477C67.4299 65.8508 67.656 66.0019 67.8464 66.1924L71.7438 70.09L83.1192 59.7664C83.5221 59.4008 84.0538 59.2102 84.5972 59.2365C85.1407 59.2629 85.6514 59.504 86.017 59.9069C86.3827 60.3099 86.5733 60.8415 86.5469 61.385C86.5206 61.9284 86.2794 62.4391 85.8765 62.8048L73.0539 74.4415C72.6768 74.7844 72.1853 74.9743 71.6756 74.9738C71.4061 74.974 71.1392 74.921 70.8903 74.8179C70.6413 74.7147 70.4151 74.5635 70.2247 74.3727Z" fill="#EB235C"/>
</svg>
