<svg width="150" height="150" viewBox="0 0 150 150" fill="none" xmlns="http://www.w3.org/2000/svg">
<rect x="0.5" y="0.5" width="149" height="149" rx="74.5" fill="#FDE9EF"/>
<rect x="0.5" y="0.5" width="149" height="149" rx="74.5" stroke="#EB235C"/>
<g clip-path="url(#clip0_1_232)">
<path d="M114.294 73.5234L110.378 61.7184C109.361 58.65 106.544 56.6667 103.204 56.6667H92.7176L93.1009 53.5417C93.1887 52.8876 93.1364 52.2223 92.9477 51.5899C92.7589 50.9575 92.4379 50.3724 92.0059 49.8734C91.5676 49.3844 91.0304 48.9943 90.4299 48.7288C89.8293 48.4633 89.1792 48.3285 88.5226 48.3334H48.1276C45.4609 48.3334 43.0409 50.4884 42.7326 53.1217L42.5193 54.7884C42.4914 55.0055 42.5067 55.226 42.5641 55.4372C42.6215 55.6485 42.7199 55.8463 42.8538 56.0195C42.9877 56.1927 43.1543 56.3378 43.3443 56.4466C43.5343 56.5553 43.7438 56.6256 43.9609 56.6534C44.1784 56.6837 44.3998 56.6703 44.612 56.6139C44.8242 56.5575 45.023 56.4593 45.1968 56.325C45.3705 56.1907 45.5157 56.023 45.6237 55.8318C45.7317 55.6407 45.8005 55.4298 45.8259 55.2117L46.0409 53.5267C46.1559 52.535 47.1309 51.6667 48.1276 51.6667H88.5226C88.9226 51.6667 89.2709 51.8134 89.5059 52.0784C89.6269 52.2229 89.7153 52.3918 89.7651 52.5736C89.8148 52.7554 89.8248 52.9457 89.7942 53.1317L85.8909 85.0017H42.1376C42.1426 84.5984 41.9994 84.2073 41.7352 83.9025C41.471 83.5978 41.1042 83.4006 40.7043 83.3484C40.487 83.3209 40.2665 83.3366 40.0554 83.3945C39.8443 83.4525 39.6467 83.5517 39.474 83.6862C39.3013 83.8208 39.1569 83.9882 39.0491 84.1788C38.9414 84.3694 38.8723 84.5794 38.8459 84.7967L38.2243 89.8084C38.141 90.4648 38.1977 91.1314 38.3908 91.7642C38.5838 92.3971 38.9088 92.9819 39.3443 93.48C39.7785 93.9665 40.3121 94.354 40.909 94.6166C41.5059 94.8791 42.1522 95.0104 42.8043 95.0017H46.0309C46.0559 96.6567 46.6026 98.2 47.6792 99.4134C48.9642 100.867 50.7942 101.668 52.8276 101.668C56.6409 101.668 60.1076 98.7267 60.8876 95.0017H89.7659C89.7909 96.6567 90.3376 98.1984 91.4109 99.4117C92.6976 100.867 94.5276 101.668 96.5626 101.668C100.374 101.668 103.841 98.7267 104.623 95.0017H108.211C110.908 95.0017 113.278 92.8934 113.606 90.205L114.886 79.7667C115.157 77.6682 114.955 75.5356 114.296 73.525L114.294 73.5234ZM110.719 73.3334H100.676L101.468 66.87C101.479 66.785 101.616 66.6667 101.684 66.6667H108.508L110.719 73.3334ZM92.3109 60H103.206C105.114 60 106.648 61.06 107.214 62.7684L107.403 63.3334H101.684C99.9226 63.3334 98.3759 64.7084 98.1609 66.4634L97.3443 73.13C97.2868 73.5746 97.3244 74.0263 97.4546 74.4553C97.5847 74.8842 97.8045 75.2807 98.0993 75.6184C98.6893 76.2834 99.5476 76.665 100.459 76.665H111.583C111.688 77.5598 111.687 78.464 111.578 79.3584L110.886 84.9984H89.2476L92.3093 59.9984L92.3109 60ZM90.4776 91.6667H88.4309L88.8393 88.3334H93.1959C92.0239 89.1982 91.0889 90.3446 90.4776 91.6667ZM85.0742 91.6667H60.8426C60.5879 90.6516 60.0961 89.7115 59.4076 88.9234C59.2109 88.7017 58.9809 88.525 58.7609 88.3334H85.4842L85.0742 91.6667ZM46.7276 91.6667H42.8026C42.6214 91.6734 42.4409 91.6409 42.2734 91.5713C42.106 91.5016 41.9556 91.3966 41.8326 91.2634C41.71 91.1185 41.6196 90.9492 41.5676 90.7667C41.5156 90.5842 41.5031 90.3928 41.5309 90.205L41.7626 88.3334H49.4042C48.2399 89.1959 47.3175 90.344 46.7259 91.6667H46.7276ZM57.7209 93.9634C57.4309 96.3334 55.1893 98.3334 52.8259 98.3334C51.7593 98.3334 50.8193 97.9317 50.1726 97.2017C49.5159 96.4617 49.2292 95.455 49.3609 94.37C49.6526 92 51.8943 90 54.2576 90C55.3243 90 56.2659 90.4017 56.9109 91.1317C57.5676 91.8717 57.8542 92.8784 57.7209 93.9634ZM101.456 93.9634C101.164 96.3334 98.9226 98.3334 96.5609 98.3334C95.4943 98.3334 94.5526 97.9317 93.9059 97.2017C93.2493 96.4617 92.9626 95.455 93.0959 94.37C93.3876 92 95.6292 90 97.9909 90C99.0576 90 99.9993 90.4017 100.646 91.1317C101.303 91.8717 101.589 92.8784 101.456 93.9634ZM108.211 91.6667H104.578C104.323 90.6516 103.831 89.7115 103.143 88.9234C102.946 88.7017 102.716 88.525 102.496 88.3334H110.479L110.299 89.7967C110.178 90.7934 109.201 91.6667 108.211 91.6667Z" fill="#EB235C"/>
<path d="M50.05 78.3333C50.05 77.8913 49.8744 77.4674 49.5618 77.1548C49.2493 76.8423 48.8254 76.6667 48.3833 76.6667H36.6667C36.2246 76.6667 35.8007 76.8423 35.4882 77.1548C35.1756 77.4674 35 77.8913 35 78.3333C35 78.7754 35.1756 79.1993 35.4882 79.5118C35.8007 79.8244 36.2246 80 36.6667 80H48.3833C48.8254 80 49.2493 79.8244 49.5618 79.5118C49.8744 79.1993 50.05 78.7754 50.05 78.3333ZM41.8117 68.3333C41.3696 68.3333 40.9457 68.5089 40.6332 68.8215C40.3206 69.134 40.145 69.558 40.145 70C40.145 70.442 40.3206 70.866 40.6332 71.1785C40.9457 71.4911 41.3696 71.6667 41.8117 71.6667H49.4133C49.8554 71.6667 50.2793 71.4911 50.5918 71.1785C50.9044 70.866 51.08 70.442 51.08 70C51.08 69.558 50.9044 69.134 50.5918 68.8215C50.2793 68.5089 49.8554 68.3333 49.4133 68.3333H41.8117ZM38.625 63.3333H52.0917C52.5337 63.3333 52.9576 63.1577 53.2702 62.8452C53.5827 62.5326 53.7583 62.1087 53.7583 61.6667C53.7583 61.2246 53.5827 60.8007 53.2702 60.4882C52.9576 60.1756 52.5337 60 52.0917 60H38.625C38.183 60 37.759 60.1756 37.4465 60.4882C37.1339 60.8007 36.9583 61.2246 36.9583 61.6667C36.9583 62.1087 37.1339 62.5326 37.4465 62.8452C37.759 63.1577 38.183 63.3333 38.625 63.3333Z" fill="#EB235C"/>
</g>
<defs>
<clipPath id="clip0_1_232">
<rect width="80" height="80" fill="white" transform="translate(35 35)"/>
</clipPath>
</defs>
</svg>
