<svg width="150" height="150" viewBox="0 0 150 150" fill="none" xmlns="http://www.w3.org/2000/svg">
<rect x="0.5" y="0.5" width="149" height="149" rx="74.5" fill="#FDE9EF"/>
<rect x="0.5" y="0.5" width="149" height="149" rx="74.5" stroke="#EB235C"/>
<g clip-path="url(#clip0_1_251)">
<path d="M69.92 114.62C69.5587 114.62 69.2049 114.516 68.9 114.322L57.14 106.855C43.275 98.0475 35 82.9975 35 66.595V46.81C35 45.9675 35.555 45.2225 36.365 44.985L69.38 35.205C69.7325 35.1009 70.1075 35.1009 70.46 35.205L103.478 44.985C103.871 45.1015 104.216 45.3422 104.462 45.6711C104.708 46 104.84 46.3995 104.84 46.81V66.595C104.84 67.645 103.99 68.5125 102.935 68.5125C101.88 68.5125 101.033 67.67 101.033 66.62V48.23L69.92 39.0175L38.81 48.23V66.595C38.81 81.685 46.425 95.535 59.185 103.64L69.9175 110.455L71.005 109.765C71.2154 109.63 71.4504 109.538 71.6966 109.494C71.9427 109.45 72.1952 109.455 72.4393 109.509C72.6835 109.563 72.9146 109.664 73.1194 109.808C73.3242 109.951 73.4985 110.134 73.6325 110.345C73.7673 110.555 73.8592 110.791 73.903 111.037C73.9468 111.283 73.9416 111.535 73.8877 111.779C73.8339 112.023 73.7324 112.254 73.589 112.459C73.4457 112.664 73.2634 112.838 73.0525 112.972L70.945 114.32C70.6393 114.517 70.2834 114.621 69.92 114.62Z" fill="#EB235C"/>
<path d="M65.3252 99.6599C64.9512 99.6605 64.5847 99.5556 64.2677 99.3574L62.5677 98.2649C51.6727 91.3749 45.1602 79.5324 45.1602 66.5949V54.3749C45.1602 53.5299 45.7152 52.7874 46.5227 52.5474L69.3802 45.7899C69.7326 45.6859 70.1077 45.6859 70.4602 45.7899L93.3177 52.5474C93.7113 52.6642 94.0567 52.9049 94.3027 53.2337C94.5486 53.5625 94.6819 53.9619 94.6827 54.3724V64.7124C94.6827 65.2177 94.482 65.7022 94.1247 66.0595C93.7674 66.4167 93.2829 66.6174 92.7777 66.6174C92.2724 66.6174 91.7879 66.4167 91.4306 66.0595C91.0734 65.7022 90.8727 65.2177 90.8727 64.7124V55.7999L69.9227 49.6074L48.9652 55.7999V66.5949C48.9652 78.2199 54.8152 88.8574 64.6102 95.0549L66.2502 96.1049C66.8252 96.4324 67.2152 97.0474 67.2152 97.7549C67.2152 98.8049 66.3727 99.6599 65.3227 99.6599H65.3252Z" fill="#EB235C"/>
<path d="M92.7777 114.875C80.5227 114.875 70.5552 104.905 70.5552 92.65C70.5552 80.395 80.5227 70.4275 92.7802 70.4275C105.038 70.4275 115 80.4 115 92.6525C115 104.905 105.033 114.872 92.7777 114.872V114.875ZM92.7777 74.2375C82.6252 74.2375 74.3652 82.4975 74.3652 92.65C74.3652 102.802 82.6252 111.062 92.7777 111.062C102.93 111.062 111.19 102.805 111.19 92.65C111.19 82.495 102.933 74.2375 92.7777 74.2375Z" fill="#EB235C"/>
<path d="M92.7775 103.55C91.2131 103.548 89.7133 102.926 88.6069 101.82C87.5005 100.714 86.8777 99.2143 86.875 97.6499C86.875 97.1447 87.0757 96.6602 87.433 96.3029C87.7902 95.9456 88.2748 95.7449 88.78 95.7449C89.2852 95.7449 89.7698 95.9456 90.127 96.3029C90.4843 96.6602 90.685 97.1447 90.685 97.6499C90.685 98.7999 91.625 99.7424 92.7775 99.7424C93.93 99.7424 94.87 98.8024 94.87 97.6474V97.0174C94.8712 96.4804 94.6923 95.9586 94.3619 95.5352C94.0315 95.1119 93.5687 94.8117 93.0475 94.6824L91.5825 94.3149C90.2367 93.9798 89.0419 93.2037 88.1887 92.1103C87.3355 91.0169 86.873 89.6693 86.875 88.2824V87.6524C86.875 84.3999 89.525 81.7524 92.7775 81.7524C96.03 81.7524 98.68 84.3999 98.68 87.6524C98.68 88.1577 98.4793 88.6422 98.122 88.9995C97.7648 89.3567 97.2802 89.5574 96.775 89.5574C96.2698 89.5574 95.7852 89.3567 95.428 88.9995C95.0707 88.6422 94.87 88.1577 94.87 87.6524C94.87 86.4999 93.93 85.5599 92.7775 85.5599C91.625 85.5599 90.685 86.4999 90.685 87.6524V88.2824C90.685 89.3924 91.435 90.3524 92.5075 90.6199L93.9725 90.9874C95.3179 91.3225 96.5124 92.0982 97.3655 93.1911C98.2187 94.284 98.6814 95.631 98.68 97.0174V97.6474C98.678 99.2118 98.0559 100.712 96.9499 101.818C95.8439 102.924 94.3419 103.547 92.7775 103.55Z" fill="#EB235C"/>
<path d="M92.7776 106.822C92.2723 106.822 91.7878 106.622 91.4305 106.265C91.0733 105.907 90.8726 105.423 90.8726 104.917V101.647C90.8726 101.142 91.0733 100.658 91.4305 100.3C91.7878 99.9432 92.2723 99.7425 92.7776 99.7425C93.2828 99.7425 93.7673 99.9432 94.1246 100.3C94.4818 100.658 94.6826 101.142 94.6826 101.647V104.917C94.6826 105.967 93.8301 106.822 92.7776 106.822ZM92.7776 85.56C92.2723 85.56 91.7878 85.3593 91.4305 85.002C91.0733 84.6448 90.8726 84.1602 90.8726 83.655V80.385C90.8726 79.8797 91.0733 79.3952 91.4305 79.0379C91.7878 78.6807 92.2723 78.48 92.7776 78.48C93.2828 78.48 93.7673 78.6807 94.1246 79.0379C94.4818 79.3952 94.6826 79.8797 94.6826 80.385V83.655C94.6826 84.705 93.8301 85.56 92.7776 85.56Z" fill="#EB235C"/>
</g>
<defs>
<clipPath id="clip0_1_251">
<rect width="80" height="80" fill="white" transform="translate(35 35)"/>
</clipPath>
</defs>
</svg>
